<?xml version="1.0" encoding="UTF-8" standalone="no"?>
<!-- Created with Inkscape (http://www.inkscape.org/) -->

<svg
   width="59.999992mm"
   height="15mm"
   viewBox="0 0 59.999993 15"
   version="1.1"
   id="svg5"
   inkscape:version="1.2 (dc2aedaf03, 2022-05-15)"
   sodipodi:docname="full_t_t.svg"
   xml:space="preserve"
   xmlns:inkscape="http://www.inkscape.org/namespaces/inkscape"
   xmlns:sodipodi="http://sodipodi.sourceforge.net/DTD/sodipodi-0.dtd"
   xmlns="http://www.w3.org/2000/svg"
   xmlns:svg="http://www.w3.org/2000/svg"><sodipodi:namedview
     id="namedview7"
     pagecolor="#505050"
     bordercolor="#eeeeee"
     borderopacity="1"
     inkscape:pageshadow="0"
     inkscape:pageopacity="0"
     inkscape:pagecheckerboard="0"
     inkscape:document-units="mm"
     showgrid="false"
     inkscape:snap-page="false"
     inkscape:snap-intersection-paths="true"
     inkscape:snap-smooth-nodes="false"
     inkscape:object-paths="true"
     inkscape:snap-nodes="true"
     inkscape:snap-bbox="true"
     inkscape:bbox-paths="true"
     inkscape:bbox-nodes="true"
     inkscape:snap-bbox-edge-midpoints="true"
     inkscape:zoom="1.9959235"
     inkscape:cx="83.16952"
     inkscape:cy="-23.547997"
     inkscape:window-width="1920"
     inkscape:window-height="1027"
     inkscape:window-x="1912"
     inkscape:window-y="-8"
     inkscape:window-maximized="1"
     inkscape:current-layer="layer1"
     inkscape:snap-text-baseline="false"
     inkscape:snap-center="true"
     showguides="false"
     inkscape:guide-bbox="true"
     inkscape:snap-global="false"
     inkscape:showpageshadow="0"
     inkscape:deskcolor="#505050"><sodipodi:guide
       position="10.000001,3.7499998"
       orientation="0,1"
       id="guide22470"
       inkscape:label=""
       inkscape:locked="false"
       inkscape:color="rgb(0,0,255)" /><sodipodi:guide
       position="10.000001,11.25"
       orientation="0,1"
       id="guide22472"
       inkscape:label=""
       inkscape:locked="false"
       inkscape:color="rgb(0,0,255)" /><sodipodi:guide
       position="17.500002,7.4999999"
       orientation="-1,0"
       id="guide1100"
       inkscape:label=""
       inkscape:locked="false"
       inkscape:color="rgb(0,0,255)" /><sodipodi:guide
       position="9.9999916,7.4999984"
       orientation="1,0"
       id="guide12203"
       inkscape:locked="false" /><sodipodi:guide
       position="59.999991,15"
       orientation="1,0"
       id="guide12205"
       inkscape:locked="false" /></sodipodi:namedview><defs
     id="defs2"><inkscape:path-effect
       effect="skeletal"
       id="path-effect1285"
       is_visible="true"
       lpeversion="1"
       pattern="M 0,4.9921385 C 0,2.236478 2.236478,0 4.9921385,0 7.7477989,0 9.984277,2.236478 9.984277,4.9921385 9.984277,7.7477989 7.7477989,9.984277 4.9921385,9.984277 2.236478,9.984277 0,7.7477989 0,4.9921385 Z"
       copytype="single_stretched"
       prop_scale="1"
       scale_y_rel="false"
       spacing="0"
       normal_offset="0"
       tang_offset="0"
       prop_units="false"
       vertical_pattern="false"
       hide_knot="false"
       fuse_tolerance="0" /></defs><g
     inkscape:label="Camada 1"
     inkscape:groupmode="layer"
     id="layer1"
     transform="translate(-287.55781,-65.137936)"><path
       id="path931"
       style="fill:#00cc99;fill-opacity:1;stroke:none;stroke-width:0.01;stroke-linecap:round;stroke-linejoin:round;stroke-miterlimit:4;stroke-dasharray:none;paint-order:stroke fill markers"
       d="m 288.28993,68.370378 c -0.97626,0.97647 -0.97615,2.55951 2.6e-4,3.53584 l 0.73194,0.73198 -0.73194,0.73197 c -0.97627,0.97648 -0.97615,2.55951 2.6e-4,3.53585 l 2.49965,2.499762 c 0.97633,0.976209 2.55909,0.976209 3.53542,0 l 2.49991,-2.500022 c 0.97616,-0.97638 0.97616,-2.55922 0,-3.53559 l -0.73168,-0.73223 0.73168,-0.73172 c 0.9764,-0.97633 0.97652,-2.55937 2.6e-4,-3.53584 l -2.49991,-2.50003 c -0.97639,-0.97655 -2.55955,-0.97655 -3.53594,0 z m 3.53556,-1.46417 c 0.40438,-0.40442 1.06003,-0.40442 1.4644,0 l 2.50002,2.49995 c 0.40439,0.40439 0.40439,1.06007 0,1.46446 l -0.73223,0.73122 -0.73194,-0.73145 c -0.97628,-0.97645 -2.55925,-0.97657 -3.53568,-2.6e-4 l -0.73193,0.73197 -0.73248,-0.73148 c -0.4044,-0.40439 -0.4044,-1.06007 0,-1.46446 z m -1.7673,6.76813 3.96353,3.96372 -0.73162,0.73216 c -0.40437,0.404418 -1.06002,0.404418 -1.46439,0 l -2.49975,-2.49971 c -0.4044,-0.40439 -0.4044,-1.06007 0,-1.46446 z m 1.76768,-1.76837 c 0.40442,-0.40418 1.05986,-0.40406 1.46414,2.5e-4 l 0.73168,0.73172 -1.46388,1.46395 -1.46362,-1.46369 z m 1.76797,3.23199 1.46388,-1.46394 0.73194,0.73197 c 0.40429,0.40429 0.40441,1.05977 2.5e-4,1.46421 l -0.73217,0.73168 z"
       sodipodi:nodetypes="ccccccccccccccccccccccccccccccccccccccccccccc" /><g
       id="g4481"
       style="fill:#00cc99;fill-opacity:1"><path
         d="m 308.89661,76.387938 q -1.13388,0 -2.0082,-0.47814 -0.86065,-0.47815 -1.35245,-1.29782 -0.47815,-0.83333 -0.47815,-1.89891 0,-0.84699 0.27323,-1.54371 0.27323,-0.69672 0.75136,-1.20219 0.49181,-0.51912 1.1612,-0.79235 0.68308,-0.28688 1.48908,-0.28688 0.71039,0 1.32513,0.27322 0.61476,0.27322 1.06558,0.75137 0.45082,0.46448 0.68306,1.12022 0.2459,0.64207 0.23224,1.4071 l -0.0136,0.58743 h -5.83334 l -0.3142,-1.14754 h 4.74044 l -0.21858,0.23224 v -0.30055 q -0.041,-0.42349 -0.27322,-0.7377 -0.23224,-0.32787 -0.6011,-0.50546 -0.35519,-0.19126 -0.79235,-0.19126 -0.6694,0 -1.13388,0.25956 -0.45082,0.25956 -0.68306,0.75137 -0.23224,0.47814 -0.23224,1.20218 0,0.69672 0.28689,1.21585 0.30054,0.51913 0.83333,0.80601 0.54645,0.27322 1.27049,0.27322 0.50546,0 0.92896,-0.16393 0.4235,-0.16393 0.91531,-0.58743 l 0.83333,1.1612 q -0.36885,0.34153 -0.847,0.58743 -0.46448,0.23224 -0.98361,0.36886 -0.51912,0.13661 -1.02459,0.13661 z"
         id="path3500"
         style="font-weight:500;font-size:13.8853px;line-height:1.25;font-family:'Lexend Deca';-inkscape-font-specification:'Lexend Deca Medium';letter-spacing:-0.422002px;fill:#00cc99;fill-opacity:1;stroke-width:0.264582" /><path
         d="m 316.31029,76.387938 q -1.01277,0 -1.82026,-0.4927 -0.80748,-0.4927 -1.27281,-1.34124 -0.46532,-0.84854 -0.46532,-1.91606 0,-1.06752 0.46532,-1.91606 0.46533,-0.84854 1.27281,-1.34124 0.80749,-0.4927 1.82026,-0.4927 0.97172,0 1.76552,0.36953 0.7938,0.36952 1.23175,1.02646 l -0.93066,1.12226 q -0.20529,-0.28741 -0.52007,-0.52007 -0.31479,-0.23267 -0.67062,-0.36953 -0.35584,-0.13686 -0.71168,-0.13686 -0.60219,0 -1.08121,0.3011 -0.46533,0.28741 -0.73904,0.80748 -0.27373,0.50638 -0.27373,1.14963 0,0.64325 0.27373,1.14964 0.28741,0.50639 0.76641,0.80748 0.47902,0.30109 1.06752,0.30109 0.35584,0 0.68431,-0.10948 0.34215,-0.12318 0.64325,-0.34216 0.3011,-0.21898 0.56113,-0.54744 l 0.93066,1.13595 q -0.46533,0.60219 -1.2865,0.9854 -0.80748,0.36952 -1.71077,0.36952 z"
         id="path3502"
         style="font-weight:500;font-size:13.8853px;line-height:1.25;font-family:'Lexend Deca';-inkscape-font-specification:'Lexend Deca Medium';letter-spacing:-0.422002px;fill:#00cc99;fill-opacity:1;stroke-width:0.264582" /><path
         d="m 323.37451,76.387938 q -1.0812,0 -1.92974,-0.47901 -0.84855,-0.49271 -1.34124,-1.34124 -0.49271,-0.84854 -0.49271,-1.92975 0,-1.0812 0.49271,-1.92974 0.49269,-0.84854 1.34124,-1.32756 0.84854,-0.4927 1.92974,-0.4927 1.06752,0 1.91606,0.4927 0.84853,0.47902 1.32756,1.32756 0.49269,0.84854 0.49269,1.92974 0,1.08121 -0.49269,1.92975 -0.47903,0.84853 -1.32756,1.34124 -0.84854,0.47901 -1.91606,0.47901 z m 0,-1.49179 q 0.5885,0 1.04015,-0.30109 0.46533,-0.3011 0.72536,-0.80748 0.27372,-0.50639 0.26004,-1.14964 0.0137,-0.65693 -0.26004,-1.16332 -0.26003,-0.50639 -0.72536,-0.7938 -0.45165,-0.30109 -1.04015,-0.30109 -0.5885,0 -1.06752,0.30109 -0.46533,0.28741 -0.72537,0.80749 -0.26003,0.50638 -0.26003,1.14963 0,0.64325 0.26003,1.14964 0.26004,0.50638 0.72537,0.80748 0.47902,0.30109 1.06752,0.30109 z"
         id="path3504"
         style="font-weight:500;font-size:13.8853px;line-height:1.25;font-family:'Lexend Deca';-inkscape-font-specification:'Lexend Deca Medium';letter-spacing:-0.422002px;fill:#00cc99;fill-opacity:1;stroke-width:0.264582" /><path
         d="m 327.94453,76.387938 v -7.28503 h 1.6931 l 0.028,1.39417 -0.27984,0.11194 c 0.0839,-0.24253 0.20988,-0.46641 0.37779,-0.67164 0.16792,-0.21455 0.36848,-0.39645 0.60169,-0.54571 0.23321,-0.15858 0.48041,-0.27985 0.7416,-0.3638 0.26119,-0.0933 0.52705,-0.13993 0.79757,-0.13993 0.40113,0 0.75561,0.0653 1.06344,0.1959 0.31717,0.12127 0.57836,0.31716 0.78358,0.58768 0.21455,0.27053 0.37313,0.61568 0.47575,1.03545 l -0.26587,-0.056 0.11194,-0.22388 c 0.10262,-0.223879 0.24721,-0.42444 0.43378,-0.60168 0.18656,-0.18657 0.39645,-0.34981 0.62967,-0.48974 0.2332,-0.149249 0.47574,-0.26119 0.72761,-0.33582 0.26119,-0.0746 0.51771,-0.11194 0.76957,-0.11194 0.55971,0 1.02613,0.11194 1.39926,0.33582 0.37315,0.22388 0.653,0.56437 0.83956,1.02146 0.18657,0.45709 0.27985,1.02145 0.27985,1.69309 v 4.44963 h -1.73508 v -4.33768 c 0,-0.37314 -0.0513,-0.68098 -0.15392,-0.92351 -0.0933,-0.24254 -0.24253,-0.41978 -0.44775,-0.53172 -0.1959,-0.12127 -0.4431,-0.1819 -0.74161,-0.1819 -0.23321,0 -0.45709,0.042 -0.67164,0.12593 -0.20522,0.0746 -0.38246,0.18657 -0.53172,0.33582 -0.14925,0.13993 -0.26586,0.30317 -0.34981,0.48974 -0.0839,0.18657 -0.12593,0.39179 -0.12593,0.61567 v 4.40765 h -1.73507 v -4.35168 c 0,-0.35448 -0.0513,-0.64832 -0.15392,-0.88153 -0.10262,-0.24253 -0.25188,-0.42444 -0.44777,-0.54571 -0.19589,-0.13059 -0.43377,-0.19589 -0.71362,-0.19589 -0.23321,0 -0.45242,0.042 -0.65765,0.12593 -0.20522,0.0746 -0.38246,0.1819 -0.53171,0.32183 -0.14925,0.13992 -0.26585,0.30317 -0.34982,0.48974 -0.084,0.18657 -0.12593,0.39179 -0.12593,0.61567 v 4.42164 z"
         id="path3506"
         style="font-weight:500;font-size:13.8853px;line-height:1.25;font-family:'Lexend Deca';-inkscape-font-specification:'Lexend Deca Medium';letter-spacing:-0.422002px;fill:#00cc99;fill-opacity:1;stroke-width:0.264582"
         sodipodi:nodetypes="ccccccccsccccccccssssccsccsccssccsccscscscc" /><path
         d="M 340.25088,79.291045 V 69.102908 h 1.66504 l 0.0275,1.43632 h -0.28896 c 0.0551,-0.28439 0.21102,-0.55043 0.46786,-0.79812 0.25685,-0.25687 0.56876,-0.46328 0.93573,-0.61924 0.37611,-0.15595 0.766,-0.23393 1.16965,-0.23393 0.64217,0 1.21095,0.16054 1.70633,0.48163 0.50456,0.32108 0.89903,0.76142 1.18342,1.32102 0.29357,0.55961 0.44035,1.20636 0.44035,1.94027 0,0.72473 -0.14678,1.37148 -0.44035,1.94026 -0.28439,0.5596 -0.67886,1.00453 -1.18342,1.33479 -0.49538,0.32108 -1.05499,0.48162 -1.67883,0.48162 -0.42199,0 -0.83021,-0.0826 -1.22468,-0.24769 -0.38531,-0.16513 -0.71557,-0.38071 -0.9908,-0.64675 -0.26602,-0.26604 -0.43114,-0.54584 -0.49537,-0.83941 l 0.41283,-0.19265 v 4.830017 z m 3.66035,-4.403427 c 0.3853,0 0.72932,-0.0963 1.03206,-0.28898 0.30273,-0.19265 0.53667,-0.45869 0.7018,-0.79812 0.17429,-0.339429 0.26144,-0.72932 0.26144,-1.169659 0,-0.44035 -0.0826,-0.82565 -0.24768,-1.155901 -0.16514,-0.339429 -0.39908,-0.60548 -0.70181,-0.79813 -0.30274,-0.19265 -0.65134,-0.28897 -1.04581,-0.28897 -0.40364,0 -0.75683,0.0963 -1.05957,0.28897 -0.29356,0.183481 -0.52749,0.444941 -0.7018,0.78437 -0.1743,0.33943 -0.26145,0.72931 -0.26145,1.16966 0,0.44034 0.0872,0.83023 0.26145,1.16966 0.17431,0.33943 0.40824,0.60547 0.7018,0.79812 0.30274,0.19265 0.65593,0.28898 1.05957,0.28898 z"
         id="path3508"
         style="font-weight:500;font-size:13.8853px;line-height:1.25;font-family:'Lexend Deca';-inkscape-font-specification:'Lexend Deca Medium';letter-spacing:-0.422002px;fill:#00cc99;fill-opacity:1;stroke-width:0.264582"
         sodipodi:nodetypes="cccccccsccsccsccccccsscscsscssscs" /></g></g></svg>
